<svg xmlns="http://www.w3.org/2000/svg" viewBox="0 0 142.82 116.74"><defs><style>.cls-1{fill:#1d218c;}.cls-2{fill:#fd4e26;}</style></defs><g id="Camada_2" data-name="Camada 2"><g id="Camada_1-2" data-name="Camada 1"><path class="cls-1" d="M0,.69A2.12,2.12,0,0,1,1.79,0c7.51,0,15,0,22.54,0C25.85,0,26,.22,26,1.76q0,17.84,0,35.65a9.51,9.51,0,0,0,0,1.07c.07.55.43.66.86.44a3.82,3.82,0,0,0,.74-.6q21.3-18.5,42.59-37A4.91,4.91,0,0,1,73.78,0C84.7.05,95.61,0,106.52,0a5.87,5.87,0,0,1,1.19.05.88.88,0,0,1,.54,1.47,4.35,4.35,0,0,1-.7.65L52,50.51a3.8,3.8,0,0,1-1.89.91Q37.92,53.67,25.82,56c-.07,0-.12.07-.38.24H27q12,0,24,0a2.39,2.39,0,0,1,1.88.77q28.93,28.83,57.9,57.62c.41.41,1,.78.74,1.49s-1,.61-1.66.61c-10.43,0-20.87,0-31.3,0a3,3,0,0,1-2.3-1Q53.66,93.28,31.06,70.82c-1.16-1.15-1.06-1-2.38-.12C26.47,72.16,26,74.06,26,76.64c.14,12.72.07,25.44.07,38.16,0,1.81-.11,1.92-1.88,1.92-7.43,0-14.87,0-22.3,0A3.2,3.2,0,0,1,0,116.24Z"/><path class="cls-2" d="M142.82,10.29a9.94,9.94,0,0,1-19.88.07,9.94,9.94,0,0,1,19.88-.07Z"/></g></g></svg>