<svg xmlns="http://www.w3.org/2000/svg" viewBox="0 0 617.23 119.77"><defs><style>.cls-1{fill:#1d218c;}.cls-2{fill:#fd4e26;}</style></defs><g id="Camada_2" data-name="Camada 2"><g id="Camada_1-2" data-name="Camada 1"><path class="cls-1" d="M163.1,0A34,34,0,0,0,168,.66c24.85,3.44,45,22.22,49.35,47,2.84,16.12.94,31.75-8.56,45.7-10.13,14.87-24.2,23.6-42.1,25.79-12.75,1.55-25.25.38-36.9-5.5-17.27-8.72-28.36-22.49-31.75-41.53-3.17-17.76-.5-34.65,11-49.3C119.37,9.82,132.82,2.4,149.3.42A7.68,7.68,0,0,0,152.07,0Zm-5.42,95.14h1.56a33.07,33.07,0,0,0,32-24.4c1.24-4.41,1.21-8.91,1.07-13.41C192,43.8,185.54,34,173.55,27.81c-6.79-3.49-14.14-3.75-21.53-2.94a32.92,32.92,0,0,0-27.79,23.58c-1.33,4.61-1.25,9.29-1.21,14a31.92,31.92,0,0,0,9.45,22.81C139.36,92.28,147.9,95.34,157.68,95.14Z"/><path class="cls-1" d="M0,2.15a2.14,2.14,0,0,1,1.79-.68c7.51,0,15,0,22.54,0,1.52,0,1.71.19,1.71,1.73q0,17.82,0,35.65a9.51,9.51,0,0,0,0,1.07c.07.55.43.65.86.44a4.23,4.23,0,0,0,.74-.6Q49,21.3,70.26,2.79a4.91,4.91,0,0,1,3.52-1.32c10.92.05,21.83,0,32.74,0a5.87,5.87,0,0,1,1.19.05A.88.88,0,0,1,108.25,3a4.35,4.35,0,0,1-.7.65L52,52a3.78,3.78,0,0,1-1.89.9q-12.14,2.26-24.24,4.56a2.79,2.79,0,0,0-.38.25H27c8,0,16,0,24,0a2.39,2.39,0,0,1,1.88.77q28.93,28.83,57.9,57.62c.41.41,1,.77.74,1.49s-1,.61-1.66.61c-10.43,0-20.87,0-31.3,0a3,3,0,0,1-2.3-1Q53.66,94.74,31.06,72.29c-1.16-1.15-1.06-1-2.38-.12C26.47,73.63,26,75.53,26,78.11c.14,12.72.07,25.44.07,38.16,0,1.81-.11,1.91-1.88,1.91-7.43,0-14.87,0-22.3,0A3.2,3.2,0,0,1,0,117.71Z"/><path class="cls-1" d="M305.68,72.77V3.6c0-2,.07-2.1,2.06-2.1,6.48,0,12.95,0,19.43,0a2.1,2.1,0,0,1,1.89.93q27,34.65,54,69.28c.23.3.37.71.92.89V3.21c0-1.58.12-1.71,1.69-1.71h22.43c1.47,0,1.63.16,1.63,1.66q0,56.7,0,113.4c0,1.52-.1,1.61-1.65,1.62-6.52,0-13,0-19.55,0a2.71,2.71,0,0,1-2.33-1.09Q361.61,87.26,337,57.43c-.81-1-1.55-2-2.45-2.94a5.07,5.07,0,0,1-1.38-3.42q-1.51-15.72-3.08-31.41-.74-7.62-1.48-15.23a1.12,1.12,0,0,0-.26-.68V5.38L328.51,116c0,2.14,0,2.16-2.11,2.16-5.4,0-10.79,0-16.19,0a2.51,2.51,0,0,1-2.21-1.08q-25.42-32.76-50.89-65.48l-3.55-4.55a1.86,1.86,0,0,0-.2,1.35q0,33.85,0,67.7c0,2,0,2-2.09,2H229.2c-1.64,0-1.77-.13-1.77-1.77V3.25c0-1.6.16-1.76,1.8-1.76,6.48,0,13,0,19.43,0A2.6,2.6,0,0,1,251,2.61q26.82,34.47,53.68,68.92C304.91,71.86,305.19,72.17,305.68,72.77Z"/><path class="cls-1" d="M567,26.07H450.84c-1.87,0-1.88,0-1.88,1.87,0,4.43,0,8.85,0,13.28,0,1.52.11,1.62,1.65,1.62h42.93c1.84,0,1.93.1,1.93,2V65.5c0,1.56-.17,1.73-1.7,1.73H450.84c-1.86,0-1.88,0-1.88,1.87V92c0,1.59.08,1.67,1.71,1.67h55.76c2,0,2.06.05,2.06,2.09v20.7c0,1.66-.11,1.76-1.77,1.76h-82c-1.57,0-1.68-.1-1.68-1.71q0-56.56,0-113.15c0-1.73.11-1.82,2-1.82H602a23.37,23.37,0,0,1,5.84.36,12.28,12.28,0,0,1-2.93,24.22c-11.87,0-23.74,0-35.61,0-1.1,0-1.28.3-1.28,1.32q0,44.43,0,88.87c0,2,0,2-1.92,2H543.8c-1.59,0-1.72-.12-1.72-1.69q0-42,0-84c0-1.27.44-1.71,1.66-1.93,7.77-1.4,15.52-2.88,23.28-4.33Zm47.79-12.31A9.94,9.94,0,1,0,605,23.7,9.94,9.94,0,0,0,614.82,13.76Z"/><path class="cls-2" d="M614.82,13.76a9.94,9.94,0,0,1-19.88.06,9.94,9.94,0,1,1,19.88-.06Z"/></g></g></svg>